<?xml version="1.0" encoding="utf-8"?>
<!-- Generator: Adobe Illustrator 21.0.0, SVG Export Plug-In . SVG Version: 6.00 Build 0)  -->
<svg version="1.1" id="Layer_1" xmlns="http://www.w3.org/2000/svg" xmlns:xlink="http://www.w3.org/1999/xlink" x="0px" y="0px"
	 viewBox="0 0 288 360" style="enable-background:new 0 0 288 360;" xml:space="preserve">
<style type="text/css">
	.st0{fill:none;stroke:#F4923C;stroke-miterlimit:10;}
</style>
<g>
	<g>
		
			<rect x="16.6" y="226.2" transform="matrix(0.7071 0.7071 -0.7071 0.7071 189.2442 44.3828)" class="st0" width="48.9" height="48.9"/>
		
			<rect x="85.8" y="226.2" transform="matrix(0.7071 0.7071 -0.7071 0.7071 209.5175 -4.5612)" class="st0" width="48.9" height="48.9"/>
	</g>
	<g>
		
			<rect x="16.6" y="156" transform="matrix(0.7071 0.7071 -0.7071 0.7071 139.6476 23.8392)" class="st0" width="48.9" height="48.9"/>
		
			<rect x="85.8" y="156" transform="matrix(0.7071 0.7071 -0.7071 0.7071 159.9209 -25.1048)" class="st0" width="48.9" height="48.9"/>
	</g>
	<g>
		
			<rect x="16.6" y="296.3" transform="matrix(0.7071 0.7071 -0.7071 0.7071 238.8408 64.9264)" class="st0" width="48.9" height="48.9"/>
		
			<rect x="85.8" y="296.3" transform="matrix(0.7071 0.7071 -0.7071 0.7071 259.1141 15.9824)" class="st0" width="48.9" height="48.9"/>
	</g>
	<g>
		
			<rect x="16.6" y="15.8" transform="matrix(0.7071 0.7071 -0.7071 0.7071 40.4545 -17.2479)" class="st0" width="48.9" height="48.9"/>
		
			<rect x="85.8" y="15.8" transform="matrix(0.7071 0.7071 -0.7071 0.7071 60.7277 -66.1919)" class="st0" width="48.9" height="48.9"/>
	</g>
	<g>
		
			<rect x="16.6" y="85.9" transform="matrix(0.7071 0.7071 -0.7071 0.7071 90.0511 3.2956)" class="st0" width="48.9" height="48.9"/>
		
			<rect x="85.8" y="85.9" transform="matrix(0.7071 0.7071 -0.7071 0.7071 110.3243 -45.6484)" class="st0" width="48.9" height="48.9"/>
	</g>
	<line class="st0" x1="41" y1="6.1" x2="41" y2="354.9"/>
	<line class="st0" x1="76.1" y1="6.1" x2="76.1" y2="354.9"/>
	<line class="st0" x1="110.3" y1="6.1" x2="110.3" y2="354.9"/>
	<line class="st0" x1="145" y1="40.2" x2="6.9" y2="40.2"/>
	<line class="st0" x1="145" y1="75.3" x2="6.9" y2="75.3"/>
	<line class="st0" x1="145" y1="110.3" x2="6.9" y2="110.3"/>
	<line class="st0" x1="145" y1="145.4" x2="6.9" y2="145.4"/>
	<line class="st0" x1="145" y1="180.5" x2="6.9" y2="180.5"/>
	<line class="st0" x1="145" y1="215.6" x2="6.9" y2="215.6"/>
	<line class="st0" x1="145" y1="250.6" x2="6.9" y2="250.6"/>
	<line class="st0" x1="145" y1="285.7" x2="6.9" y2="285.7"/>
	<line class="st0" x1="145" y1="320.8" x2="6.9" y2="320.8"/>
	
		<rect x="154.1" y="226.2" transform="matrix(0.7071 0.7071 -0.7071 0.7071 229.5205 -52.8526)" class="st0" width="48.9" height="48.9"/>
	
		<rect x="223.3" y="226.2" transform="matrix(0.7071 0.7071 -0.7071 0.7071 249.7937 -101.7966)" class="st0" width="48.9" height="48.9"/>
	
		<rect x="154.1" y="156" transform="matrix(0.7071 0.7071 -0.7071 0.7071 179.9239 -73.3962)" class="st0" width="48.9" height="48.9"/>
	
		<rect x="223.3" y="156" transform="matrix(0.7071 0.7071 -0.7071 0.7071 200.1971 -122.3402)" class="st0" width="48.9" height="48.9"/>
	
		<rect x="154.1" y="296.3" transform="matrix(0.7071 0.7071 -0.7071 0.7071 279.1171 -32.309)" class="st0" width="48.9" height="48.9"/>
	
		<rect x="223.3" y="296.3" transform="matrix(0.7071 0.7071 -0.7071 0.7071 299.3903 -81.2531)" class="st0" width="48.9" height="48.9"/>
	
		<rect x="154.1" y="15.8" transform="matrix(0.7071 0.7071 -0.7071 0.7071 80.7307 -114.4834)" class="st0" width="48.9" height="48.9"/>
	
		<rect x="223.3" y="15.8" transform="matrix(0.7071 0.7071 -0.7071 0.7071 101.004 -163.4274)" class="st0" width="48.9" height="48.9"/>
	
		<rect x="154.1" y="85.9" transform="matrix(0.7071 0.7071 -0.7071 0.7071 130.3273 -93.9398)" class="st0" width="48.9" height="48.9"/>
	
		<rect x="223.3" y="85.9" transform="matrix(0.7071 0.7071 -0.7071 0.7071 150.6006 -142.8838)" class="st0" width="48.9" height="48.9"/>
	<line class="st0" x1="178.6" y1="6.1" x2="178.6" y2="354.9"/>
	<line class="st0" x1="143.5" y1="6.5" x2="143.5" y2="355.4"/>
	<line class="st0" x1="213.6" y1="6.1" x2="213.6" y2="354.9"/>
	<line class="st0" x1="247.8" y1="6.1" x2="247.8" y2="354.9"/>
	<line class="st0" x1="282.5" y1="40.2" x2="144.4" y2="40.2"/>
	<line class="st0" x1="282.5" y1="75.3" x2="144.4" y2="75.3"/>
	<line class="st0" x1="282.5" y1="110.3" x2="144.4" y2="110.3"/>
	<line class="st0" x1="282.5" y1="145.4" x2="144.4" y2="145.4"/>
	<line class="st0" x1="282.5" y1="180.5" x2="144.4" y2="180.5"/>
	<line class="st0" x1="282.5" y1="215.6" x2="144.4" y2="215.6"/>
	<line class="st0" x1="282.5" y1="250.6" x2="144.4" y2="250.6"/>
	<line class="st0" x1="282.5" y1="285.7" x2="144.4" y2="285.7"/>
	<line class="st0" x1="282.5" y1="320.8" x2="144.4" y2="320.8"/>
</g>
</svg>
