<?xml version="1.0" encoding="utf-8"?>
<!-- Generator: Adobe Illustrator 21.0.0, SVG Export Plug-In . SVG Version: 6.00 Build 0)  -->
<svg version="1.1" xmlns="http://www.w3.org/2000/svg" xmlns:xlink="http://www.w3.org/1999/xlink" x="0px" y="0px"
	 viewBox="0 0 100 100" style="enable-background:new 0 0 100 100;" xml:space="preserve">
<style type="text/css">
	.st0{display:none;}
	.st1{display:inline;fill:#414042;}
	.st2{fill:none;stroke:#FFFFFF;stroke-width:2;stroke-miterlimit:10;}
	.st3{fill:none;stroke:#FBC3B4;stroke-width:2;stroke-miterlimit:10;}
</style>
<g id="Layer_1" class="st0">
</g>
<g id="portfolio_icon">
	<g id="white_1_">
		<circle class="st3" cx="50" cy="50" r="46.7"/>
		<path class="st3" d="M57.9,65.8c0.2,0.4,0.3,0.8,0.3,1.3v3.1v8.5c0,1.4-1.1,2.5-2.5,2.5h-10c-1.4,0-2.5-1.1-2.5-2.5
			c0,0,0-4.1,0-5.4c0-1.5,0-6.2,0-6.2c0-0.3,0-0.5,0.1-0.8c-8.2-2.8-14.1-10.5-14.1-19.6C29.3,35.3,38.6,26,50,26
			c11.4,0,20.7,9.3,20.7,20.7C70.7,55.3,65.4,62.7,57.9,65.8z"/>
		<path class="st3" d="M44.8,86.9c0,0,2,2.8,6.1,2.7c4.3,0,5.8-2.7,5.8-2.7"/>
		<path class="st3" d="M43.7,68.5c0,0,2.3,1.8,6.3,1.2"/>
		<path class="st3" d="M58.3,75.5c0,0-4.2,2.4-7.5,1.3"/>
		<path class="st3" d="M47.3,65.2l-0.5-20.4c0,0,0.9-3.1-0.4-4.6c-1.3-1.5-3-0.8-3.6-0.4c-1.2,0.9-1.2,3.5,0,4.1
			c2,1.1,8.6,3.1,8.6,3.1s3.1,1.2,4.1-0.4c1-1.6,0.1-3-0.5-3.5c-1-0.9-2.6-0.9-3.5,0.6c-1.2,1.9,0.1,3.9,0.1,3.9l1.1,19.1"/>
		<line class="st3" x1="50.7" y1="9.3" x2="50.7" y2="21.1"/>
		<line class="st3" x1="70.7" y1="14.4" x2="64.6" y2="24.6"/>
		<line class="st3" x1="84.9" y1="31.5" x2="74.6" y2="37.2"/>
		<line class="st3" x1="87.8" y1="54" x2="76" y2="53.2"/>
		<line class="st3" x1="28.3" y1="14.7" x2="34.4" y2="24.8"/>
		<line class="st3" x1="14" y1="31.7" x2="24.3" y2="37.5"/>
		<line class="st3" x1="11.2" y1="54.3" x2="23" y2="53.5"/>
	</g>
</g>
<g id="Layer_3">
</g>
</svg>
