<?xml version="1.0" encoding="utf-8"?>
<!-- Generator: Adobe Illustrator 21.0.0, SVG Export Plug-In . SVG Version: 6.00 Build 0)  -->
<svg version="1.1" id="Layer_1" xmlns="http://www.w3.org/2000/svg" xmlns:xlink="http://www.w3.org/1999/xlink" x="0px" y="0px"
	 viewBox="0 0 1280 1008" style="enable-background:new 0 0 1280 1008;" xml:space="preserve">
<style type="text/css">
	.st0{fill:none;stroke:#F2F2F2;stroke-width:15;stroke-miterlimit:10;}
	.st1{fill:none;stroke:#000000;stroke-width:7;stroke-miterlimit:10;}
	.st2{fill:#FFFFFF;stroke:#000000;stroke-width:10;stroke-miterlimit:10;}
	.st3{fill:none;stroke:#000000;stroke-width:10;stroke-miterlimit:10;}
	.st4{fill:#FFFFFF;stroke:#000000;stroke-width:7;stroke-miterlimit:10;}
</style>
<g>
	<path class="st0" d="M1204.4,576.6c0,0-72.6,106.8-187.4,200.2C925.9,850.9,795.7,907,644.5,907c-149.4,0-239.1-35.6-369.3-127.3
		C176.5,710.1,78,567.4,78,567.4s91.8-135.2,195.2-210.3C390.8,271.8,494,227.8,644.5,227.8c154.8,0,280.9,67.1,378.5,135.9
		C1106.2,422.2,1214.1,577.3,1204.4,576.6z"/>
	<circle class="st0" cx="641.2" cy="567.4" r="291.2"/>
	<line class="st0" x1="640.8" y1="19.7" x2="640.8" y2="227.4"/>
	<line class="st0" x1="999.5" y1="143.1" x2="926.9" y2="310.8"/>
	<line class="st0" x1="1150.5" y1="276.5" x2="1056.4" y2="394"/>
	<line class="st0" x1="1238.5" y1="437.5" x2="1162.5" y2="502.6"/>
	<circle class="st0" cx="641.5" cy="567.5" r="107"/>
	<line class="st0" x1="641.5" y1="906.5" x2="640.5" y2="980.5"/>
	<line class="st0" x1="748.5" y1="906.5" x2="759.5" y2="973.5"/>
	<line class="st0" x1="842.2" y1="873.7" x2="867.5" y2="949.5"/>
	<line class="st0" x1="932.5" y1="838.5" x2="971.5" y2="906.5"/>
	<line class="st0" x1="1004.9" y1="786.4" x2="1052.5" y2="852.5"/>
	<line class="st0" x1="1067.7" y1="732.4" x2="1131.5" y2="792.5"/>
	<line class="st0" x1="1131" y1="667.7" x2="1192.5" y2="715.5"/>
	<line class="st0" x1="1183.5" y1="604.9" x2="1245.5" y2="648.5"/>
	<line class="st0" x1="535.5" y1="907.5" x2="524.5" y2="974.5"/>
	<line class="st0" x1="441.8" y1="874.7" x2="416.5" y2="950.5"/>
	<line class="st0" x1="351.5" y1="839.5" x2="312.5" y2="907.5"/>
	<line class="st0" x1="279.1" y1="787.4" x2="231.5" y2="853.5"/>
	<line class="st0" x1="216.3" y1="733.4" x2="152.5" y2="793.5"/>
	<line class="st0" x1="153" y1="668.7" x2="91.5" y2="716.5"/>
	<line class="st0" x1="100.5" y1="605.9" x2="38.5" y2="649.5"/>
	<line class="st0" x1="834.5" y1="56.5" x2="794.3" y2="247.5"/>
	<line class="st0" x1="283.2" y1="143.1" x2="355.8" y2="310.8"/>
	<line class="st0" x1="133.3" y1="278.5" x2="227.4" y2="396"/>
	<line class="st0" x1="45.3" y1="439.5" x2="121.3" y2="504.6"/>
	<line class="st0" x1="449.3" y1="58.5" x2="489.5" y2="249.5"/>
</g>
</svg>
