<?xml version="1.0" encoding="utf-8"?>
<!-- Generator: Adobe Illustrator 21.0.0, SVG Export Plug-In . SVG Version: 6.00 Build 0)  -->
<svg version="1.1" id="Layer_1" xmlns="http://www.w3.org/2000/svg" xmlns:xlink="http://www.w3.org/1999/xlink" x="0px" y="0px"
	 viewBox="0 0 1280 1008" style="enable-background:new 0 0 1280 1008;" xml:space="preserve">
<style type="text/css">
	.st0{fill:none;stroke:#F2F2F2;stroke-width:15;stroke-miterlimit:10;}
	.st1{fill:none;stroke:#F2F2F2;stroke-width:10;stroke-miterlimit:10;}
	.st2{fill:#F2F2F2;}
	.st3{fill:none;stroke:#F2F2F2;stroke-width:7;stroke-miterlimit:10;}
</style>
<circle class="st1" cx="638.4" cy="900.8" r="38.5"/>
<path class="st1" d="M597.4,898.7C396.9,878.3,240.4,709,240.4,503c0-219.7,178.1-397.7,397.7-397.7s397.7,178.1,397.7,397.7
	c0,205.3-155.5,374.2-355.1,395.5"/>
<g>
	<path class="st1" d="M924.2,526.1c0,0-36.7,53.9-94.6,101.1c-46,37.4-111.7,65.7-188.1,65.7c-75.4,0-120.7-18-186.5-64.3
		c-49.8-35.1-99.6-107.2-99.6-107.2s46.4-68.3,98.6-106.2c59.4-43.1,111.5-65.3,187.5-65.3c78.2,0,141.8,33.9,191.1,68.6
		C874.6,448.1,929.1,526.4,924.2,526.1z"/>
	<circle class="st1" cx="639.8" cy="521.4" r="147"/>
	<line class="st1" x1="639.6" y1="244.9" x2="639.6" y2="349.8"/>
	<line class="st1" x1="820.8" y1="307.2" x2="784.1" y2="391.9"/>
	<line class="st1" x1="897" y1="374.5" x2="849.5" y2="433.9"/>
	<line class="st1" x1="941.4" y1="455.8" x2="903.1" y2="488.7"/>
	<circle class="st1" cx="640" cy="521.5" r="54"/>
	<line class="st1" x1="640" y1="692.7" x2="639.5" y2="730"/>
	<line class="st1" x1="694" y1="692.7" x2="699.6" y2="726.5"/>
	<line class="st1" x1="741.3" y1="676.1" x2="754.1" y2="714.4"/>
	<line class="st1" x1="786.9" y1="658.3" x2="806.6" y2="692.7"/>
	<line class="st1" x1="823.5" y1="632" x2="847.5" y2="665.4"/>
	<line class="st1" x1="855.2" y1="604.7" x2="887.4" y2="635.1"/>
	<line class="st1" x1="887.2" y1="572.1" x2="918.2" y2="596.2"/>
	<line class="st1" x1="913.7" y1="540.4" x2="945" y2="562.4"/>
	<line class="st1" x1="586.5" y1="693.2" x2="580.9" y2="727"/>
	<line class="st1" x1="539.2" y1="676.6" x2="526.4" y2="714.9"/>
	<line class="st1" x1="493.6" y1="658.8" x2="473.9" y2="693.2"/>
	<line class="st1" x1="457" y1="632.5" x2="433" y2="665.9"/>
	<line class="st1" x1="425.3" y1="605.3" x2="393.1" y2="635.6"/>
	<line class="st1" x1="393.3" y1="572.6" x2="362.3" y2="596.7"/>
	<line class="st1" x1="366.8" y1="540.9" x2="335.5" y2="562.9"/>
	<line class="st1" x1="737.4" y1="263.5" x2="717.1" y2="359.9"/>
	<line class="st1" x1="459.1" y1="307.2" x2="495.7" y2="391.9"/>
	<line class="st1" x1="383.4" y1="375.6" x2="430.9" y2="434.9"/>
	<line class="st1" x1="338.9" y1="456.9" x2="377.3" y2="489.7"/>
	<line class="st1" x1="542.9" y1="264.5" x2="563.2" y2="360.9"/>
</g>
<circle class="st2" cx="638.1" cy="105.3" r="38.5"/>
<g>
	<g>
		
			<ellipse transform="matrix(0.7699 -0.6382 0.6382 0.7699 -359.9598 820.5522)" class="st2" cx="957.8" cy="909.4" rx="18.6" ry="19.4"/>
		<line class="st3" x1="857.4" y1="787.9" x2="933.1" y2="879.2"/>
	</g>
	<g>
		
			<ellipse transform="matrix(0.7699 -0.6382 0.6382 0.7699 -7.5793 222.6677)" class="st2" cx="305" cy="121.8" rx="18.6" ry="19.4"/>
		<line class="st3" x1="327.2" y1="148.3" x2="402.9" y2="239.6"/>
	</g>
</g>
<g>
	<line class="st3" x1="754.9" y1="126.5" x2="772" y2="58.5"/>
	<line class="st3" x1="561.7" y1="893.4" x2="542.9" y2="968.1"/>
</g>
</svg>
